<svg width="12" height="14" viewBox="0 0 12 14" fill="none" xmlns="http://www.w3.org/2000/svg">
    <path fill-rule="evenodd" clip-rule="evenodd" d="M9.33333 9.66676C9.33333 8.74628 8.58714 8.00009 7.66667 8.00009C6.74619 8.00009 6 8.74628 6 9.66676C6 10.5872 6.74619 11.3334 7.66667 11.3334C8.58714 11.3334 9.33333 10.5872 9.33333 9.66676ZM9.33333 0.666748C8.96514 0.666748 8.66667 0.965225 8.66667 1.33341C8.66667 1.7016 8.36819 2.00008 8 2.00008H4C3.63181 2.00008 3.33333 1.7016 3.33333 1.33341C3.33333 0.965225 3.03486 0.666748 2.66667 0.666748C2.29848 0.666748 2 0.965225 2 1.33341C2 1.7016 1.70152 2.00008 1.33333 2.00008C0.593333 2.00008 0.00666667 2.60008 0.00666667 3.33341L0 12.6667C0 13.4001 0.593333 14.0001 1.33333 14.0001H10.6667C11.4 14.0001 12 13.4001 12 12.6667V3.33341C12 2.60008 11.4 2.00008 10.6667 2.00008C10.2985 2.00008 10 1.7016 10 1.33341C10 0.965225 9.70152 0.666748 9.33333 0.666748ZM10.6667 9.0001C10.6667 11.0251 9.02509 12.6668 7.00004 12.6668H5.00004C2.975 12.6668 1.33337 11.0251 1.33337 9.0001C1.33337 6.97506 2.975 5.33344 5.00004 5.33344H7.00004C9.02509 5.33344 10.6667 6.97506 10.6667 9.0001Z" fill="#979797"/>
</svg>
