<svg width="18" height="18" viewBox="0 0 18 18" fill="none" xmlns="http://www.w3.org/2000/svg">
    <mask id="mask0" mask-type="alpha" maskUnits="userSpaceOnUse" x="3" y="1" width="12" height="13">
        <path fill-rule="evenodd" clip-rule="evenodd" d="M3.75 6.75C3.75 3.84753 6.09741 1.5 9 1.5C11.9026 1.5 14.25 3.84753 14.25 6.75C14.25 8.3805 13.3498 10.3325 12.2948 12.0602C10.7513 14.5881 7.24873 14.5881 5.70515 12.0602C4.65024 10.3325 3.75 8.3805 3.75 6.75ZM7.125 6.75C7.125 7.78503 7.96509 8.625 9 8.625C10.0349 8.625 10.875 7.78503 10.875 6.75C10.875 5.71497 10.0349 4.875 9 4.875C7.96509 4.875 7.125 5.71497 7.125 6.75Z" fill="white"/>
    </mask>
    <g mask="url(#mask0)">
        <rect width="18" height="18" rx="5" fill="#AF00FF"/>
    </g>
</svg>
