<svg width="348" height="72" viewBox="0 0 348 72" fill="none" xmlns="http://www.w3.org/2000/svg">
	<path d="M5 34.5C5 17.6553 18.6553 4 35.5 4H312.5C329.345 4 343 17.6553 343 34.5C343 51.3447 329.345 65 312.5 65H35.5C18.6553 65 5 51.3447 5 34.5Z" fill="#1BB954"/>
	<path d="M77.082 39.4509C77.082 39.0223 76.8811 38.6808 76.4794 38.4263C73.8945 36.8862 70.9012 36.1161 67.4994 36.1161C65.7182 36.1161 63.7963 36.3437 61.7338 36.7991C61.1713 36.9196 60.8901 37.2679 60.8901 37.8437C60.8901 38.1116 60.9771 38.346 61.1512 38.5469C61.3387 38.7344 61.5798 38.8281 61.8744 38.8281C61.9414 38.8281 62.1892 38.7746 62.6177 38.6674C64.3856 38.3058 66.0128 38.125 67.4994 38.125C70.5262 38.125 73.1847 38.8147 75.4749 40.1942C75.7294 40.3415 75.9503 40.4152 76.1378 40.4152C76.3923 40.4152 76.6133 40.3281 76.8008 40.154C76.9883 39.9665 77.082 39.7321 77.082 39.4509ZM79.0106 35.1317C79.0106 34.596 78.7762 34.1875 78.3075 33.9062C75.1334 32.0179 71.4637 31.0737 67.2985 31.0737C65.2494 31.0737 63.2204 31.3549 61.2115 31.9174C60.5686 32.0915 60.2472 32.5201 60.2472 33.2031C60.2472 33.5379 60.361 33.8259 60.5887 34.067C60.8298 34.2946 61.1177 34.4085 61.4526 34.4085C61.5463 34.4085 61.7941 34.3549 62.1959 34.2478C63.8298 33.8058 65.5106 33.5848 67.2383 33.5848C70.9749 33.5848 74.2427 34.4152 77.0419 36.0759C77.3633 36.25 77.6177 36.3371 77.8052 36.3371C78.1401 36.3371 78.4213 36.2232 78.649 35.9955C78.8901 35.7545 79.0106 35.4665 79.0106 35.1317ZM81.1802 30.1496C81.1802 29.5201 80.9124 29.0513 80.3767 28.7433C78.6892 27.7656 76.7271 27.029 74.4905 26.5335C72.2539 26.0246 69.957 25.7701 67.5999 25.7701C64.8677 25.7701 62.4302 26.0848 60.2874 26.7143C59.9794 26.808 59.7182 26.9821 59.5039 27.2366C59.303 27.4777 59.2026 27.7991 59.2026 28.2009C59.2026 28.6161 59.3365 28.9643 59.6044 29.2455C59.8856 29.5268 60.2338 29.6674 60.649 29.6674C60.7963 29.6674 61.0642 29.6138 61.4526 29.5067C63.2338 29.0112 65.2896 28.7634 67.62 28.7634C69.7494 28.7634 71.8186 28.9911 73.8276 29.4464C75.8499 29.9018 77.5508 30.5379 78.9302 31.3549C79.2115 31.5156 79.4794 31.596 79.7338 31.596C80.1222 31.596 80.457 31.4621 80.7383 31.1942C81.0329 30.9129 81.1802 30.5647 81.1802 30.1496ZM83.2294 25.4085C84.6088 27.7656 85.2986 30.3437 85.2986 33.1429C85.2986 35.942 84.6088 38.5268 83.2294 40.8973C81.8499 43.2545 79.9749 45.1228 77.6044 46.5022C75.2472 47.8817 72.6691 48.5714 69.87 48.5714C67.0709 48.5714 64.486 47.8817 62.1155 46.5022C59.7584 45.1228 57.8901 43.2545 56.5106 40.8973C55.1311 38.5268 54.4414 35.942 54.4414 33.1429C54.4414 30.3437 55.1311 27.7656 56.5106 25.4085C57.8901 23.0379 59.7584 21.1629 62.1155 19.7835C64.486 18.404 67.0709 17.7143 69.87 17.7143C72.6691 17.7143 75.2472 18.404 77.6044 19.7835C79.9749 21.1629 81.8499 23.0379 83.2294 25.4085Z" fill="white"/>
	<path d="M119.761 37.4365C119.761 36.999 119.606 36.6618 119.296 36.4248C118.991 36.1878 118.437 35.9486 117.635 35.707C116.833 35.4655 116.195 35.1966 115.721 34.9004C114.814 34.3307 114.36 33.5879 114.36 32.6719C114.36 31.8698 114.686 31.209 115.338 30.6895C115.994 30.1699 116.844 29.9102 117.888 29.9102C118.58 29.9102 119.198 30.0378 119.74 30.293C120.283 30.5482 120.709 30.9128 121.019 31.3867C121.328 31.8561 121.483 32.3779 121.483 32.9521H119.761C119.761 32.4326 119.597 32.027 119.269 31.7354C118.945 31.4391 118.48 31.291 117.874 31.291C117.309 31.291 116.869 31.4118 116.555 31.6533C116.245 31.8949 116.09 32.2321 116.09 32.665C116.09 33.0296 116.258 33.335 116.596 33.5811C116.933 33.8226 117.489 34.0596 118.264 34.292C119.038 34.5199 119.66 34.7819 120.13 35.0781C120.599 35.3698 120.943 35.707 121.162 36.0898C121.381 36.4681 121.49 36.9124 121.49 37.4229C121.49 38.2523 121.171 38.9131 120.533 39.4053C119.9 39.8929 119.038 40.1367 117.949 40.1367C117.229 40.1367 116.566 40.0046 115.96 39.7402C115.358 39.4714 114.889 39.1022 114.552 38.6328C114.219 38.1634 114.053 37.6165 114.053 36.9922H115.782C115.782 37.5573 115.969 37.9948 116.343 38.3047C116.716 38.6146 117.252 38.7695 117.949 38.7695C118.551 38.7695 119.002 38.6488 119.303 38.4072C119.608 38.1611 119.761 37.8376 119.761 37.4365ZM125.583 40H123.86V30.0469H125.583V40ZM136.088 38.708C135.728 39.1774 135.229 39.5329 134.591 39.7744C133.953 40.016 133.228 40.1367 132.417 40.1367C131.583 40.1367 130.845 39.9476 130.202 39.5693C129.56 39.1911 129.063 38.651 128.712 37.9492C128.366 37.2428 128.186 36.4202 128.172 35.4814V34.7021C128.172 33.1982 128.532 32.0247 129.252 31.1816C129.972 30.334 130.977 29.9102 132.267 29.9102C133.374 29.9102 134.254 30.1836 134.905 30.7305C135.557 31.2773 135.949 32.0658 136.081 33.0957H134.386C134.194 31.8971 133.499 31.2979 132.301 31.2979C131.526 31.2979 130.936 31.5781 130.53 32.1387C130.129 32.6947 129.922 33.5127 129.908 34.5928V35.3584C129.908 36.4339 130.134 37.2702 130.585 37.8672C131.041 38.4596 131.672 38.7559 132.479 38.7559C133.363 38.7559 133.992 38.5553 134.365 38.1543V36.2061H132.314V34.8936H136.088V38.708ZM146.634 40H144.904L140.468 32.9385V40H138.738V30.0469H140.468L144.918 37.1357V30.0469H146.634V40ZM155.489 40H153.767V30.0469H155.489V40ZM166.261 40H164.531L160.095 32.9385V40H158.365V30.0469H160.095L164.545 37.1357V30.0469H166.261V40ZM181.098 37.5391L182.629 30.0469H184.345L182.048 40H180.394L178.5 32.7334L176.565 40H174.904L172.607 30.0469H174.323L175.868 37.5254L177.769 30.0469H179.218L181.098 37.5391ZM188.185 40H186.462V30.0469H188.185V40ZM198.047 31.4414H194.943V40H193.228V31.4414H190.151V30.0469H198.047V31.4414ZM208.012 40H206.289V35.5771H201.839V40H200.109V30.0469H201.839V34.1895H206.289V30.0469H208.012V40ZM220.251 37.4365C220.251 36.999 220.096 36.6618 219.786 36.4248C219.481 36.1878 218.927 35.9486 218.125 35.707C217.323 35.4655 216.685 35.1966 216.211 34.9004C215.304 34.3307 214.851 33.5879 214.851 32.6719C214.851 31.8698 215.176 31.209 215.828 30.6895C216.484 30.1699 217.334 29.9102 218.378 29.9102C219.071 29.9102 219.688 30.0378 220.23 30.293C220.773 30.5482 221.199 30.9128 221.509 31.3867C221.819 31.8561 221.974 32.3779 221.974 32.9521H220.251C220.251 32.4326 220.087 32.027 219.759 31.7354C219.435 31.4391 218.97 31.291 218.364 31.291C217.799 31.291 217.359 31.4118 217.045 31.6533C216.735 31.8949 216.58 32.2321 216.58 32.665C216.58 33.0296 216.749 33.335 217.086 33.5811C217.423 33.8226 217.979 34.0596 218.754 34.292C219.529 34.5199 220.151 34.7819 220.62 35.0781C221.09 35.3698 221.434 35.707 221.652 36.0898C221.871 36.4681 221.98 36.9124 221.98 37.4229C221.98 38.2523 221.661 38.9131 221.023 39.4053C220.39 39.8929 219.529 40.1367 218.439 40.1367C217.719 40.1367 217.056 40.0046 216.45 39.7402C215.849 39.4714 215.379 39.1022 215.042 38.6328C214.709 38.1634 214.543 37.6165 214.543 36.9922H216.272C216.272 37.5573 216.459 37.9948 216.833 38.3047C217.207 38.6146 217.742 38.7695 218.439 38.7695C219.041 38.7695 219.492 38.6488 219.793 38.4072C220.098 38.1611 220.251 37.8376 220.251 37.4365ZM225.978 36.3018V40H224.248V30.0469H228.056C229.168 30.0469 230.049 30.3363 230.701 30.915C231.357 31.4938 231.686 32.2594 231.686 33.2119C231.686 34.1872 231.364 34.946 230.722 35.4883C230.084 36.0306 229.188 36.3018 228.035 36.3018H225.978ZM225.978 34.9141H228.056C228.671 34.9141 229.14 34.7705 229.464 34.4834C229.787 34.1917 229.949 33.7725 229.949 33.2256C229.949 32.6878 229.785 32.2594 229.457 31.9404C229.129 31.6169 228.678 31.4505 228.104 31.4414H225.978V34.9141ZM241.896 35.2832C241.896 36.2585 241.728 37.1152 241.391 37.8535C241.053 38.5872 240.57 39.1523 239.941 39.5488C239.317 39.9408 238.597 40.1367 237.781 40.1367C236.975 40.1367 236.255 39.9408 235.621 39.5488C234.992 39.1523 234.505 38.5895 234.158 37.8604C233.816 37.1312 233.643 36.2904 233.639 35.3379V34.7773C233.639 33.8066 233.81 32.9499 234.151 32.207C234.498 31.4642 234.983 30.8968 235.607 30.5049C236.236 30.1084 236.956 29.9102 237.768 29.9102C238.579 29.9102 239.297 30.1061 239.921 30.498C240.55 30.8854 241.035 31.446 241.377 32.1797C241.719 32.9089 241.892 33.7588 241.896 34.7295V35.2832ZM240.167 34.7637C240.167 33.6608 239.957 32.8154 239.538 32.2275C239.123 31.6396 238.533 31.3457 237.768 31.3457C237.02 31.3457 236.435 31.6396 236.011 32.2275C235.591 32.8109 235.377 33.638 235.368 34.709V35.2832C235.368 36.377 235.58 37.2223 236.004 37.8193C236.432 38.4163 237.025 38.7148 237.781 38.7148C238.547 38.7148 239.135 38.4232 239.545 37.8398C239.96 37.2565 240.167 36.4043 240.167 35.2832V34.7637ZM250.973 31.4414H247.869V40H246.153V31.4414H243.077V30.0469H250.973V31.4414ZM254.86 40H253.138V30.0469H254.86V40ZM263.472 35.7822H259.466V40H257.736V30.0469H264.06V31.4414H259.466V34.4014H263.472V35.7822ZM269.431 34.7637L271.721 30.0469H273.635L270.299 36.3359V40H268.562V36.3359L265.22 30.0469H267.141L269.431 34.7637Z" fill="white"/>
</svg>
